<?xml version="1.0" encoding="UTF-8" standalone="no"?>
<svg width="80px" height="110px" viewBox="0 0 80 110" version="1.1" xmlns="http://www.w3.org/2000/svg" xmlns:xlink="http://www.w3.org/1999/xlink">
    <!-- Generator: sketchtool 39.1 (31720) - http://www.bohemiancoding.com/sketch -->
    <title>48A8ECF8-2194-4427-8F82-422DBB2BF3BF</title>
    <desc>Created with sketchtool.</desc>
    <defs>
        <polygon id="path-1" points="0 0.169242857 0 73.2556 79.8713663 73.2556 79.8713663 0.169242857 2.146935e-20 0.169242857"></polygon>
        <polygon id="path-3" points="0 109.651929 79.8716832 109.651929 79.8716832 0 0 0"></polygon>
    </defs>
    <g id="02-Login-Screen" stroke="none" stroke-width="1" fill="none" fill-rule="evenodd">
        <g id="01-Login-Screen-v1" transform="translate(-680.000000, -212.000000)">
            <g id="sign-in-modal" transform="translate(392.000000, 112.000000)">
                <g id="botler-icon-signin" transform="translate(288.000000, 100.000000)">
                    <path d="M41.0337426,79.7605286 C20.438099,79.7605286 2.68681188,72.1171 2.68681188,56.1710286 C2.68681188,39.2278857 20.9386931,32.2538857 41.368,32.2538857 C57.7798812,32.2538857 77.8717624,37.4034571 77.8717624,56.1710286 C77.8717624,73.6138857 59.118495,79.7605286 41.0337426,79.7605286 L41.0337426,79.7605286 Z" id="Fill-1" fill="#FFFFFF"></path>
                    <g id="Group-5" transform="translate(0.000000, 19.294786)">
                        <mask id="mask-2" fill="white">
                            <use xlink:href="#path-1"></use>
                        </mask>
                        <g id="Clip-4"></g>
                        <path d="M40.6903762,60.4657429 C20.0947327,60.4657429 2.34344554,52.8223143 2.34344554,36.8762429 C2.34344554,19.9331 20.5953267,12.9591 41.0238416,12.9591 C57.4365149,12.9591 77.528396,18.1086714 77.528396,36.8762429 C77.528396,54.3191 58.7751287,60.4657429 40.6903762,60.4657429 M39.5188911,0.169242857 C15.2369109,0.169242857 -0.000316831683,17.1116 -0.000316831683,35.7141714 C-0.000316831683,59.4686714 18.9232475,73.2556 40.857505,73.2556 C62.7949307,73.2556 79.8713663,59.1347429 79.8713663,37.2109571 C79.8713663,14.9524571 63.2955248,0.169242857 39.5188911,0.169242857" id="Fill-3" fill="#000000" mask="url(#mask-2)"></path>
                    </g>
                    <path d="M64.2053069,52.9349071 C64.2053069,56.09505 61.6223366,58.6572643 58.4365941,58.6572643 C55.2500594,58.6572643 52.6670891,56.09505 52.6670891,52.9349071 C52.6670891,49.7747643 55.2500594,47.21255 58.4365941,47.21255 C61.6223366,47.21255 64.2053069,49.7747643 64.2053069,52.9349071" id="Fill-6" fill="#000000"></path>
                    <path d="M27.5598416,52.9349071 C27.5598416,56.09505 24.9768713,58.6572643 21.7911287,58.6572643 C18.6045941,58.6572643 16.0216238,56.09505 16.0216238,52.9349071 C16.0216238,49.7747643 18.6045941,47.21255 21.7911287,47.21255 C24.9768713,47.21255 27.5598416,49.7747643 27.5598416,52.9349071" id="Fill-8" fill="#000000"></path>
                    <mask id="mask-4" fill="white">
                        <use xlink:href="#path-3"></use>
                    </mask>
                    <g id="Clip-11"></g>
                    <polygon id="Fill-10" fill="#000000" mask="url(#mask-4)" points="38.7999878 19.4639878 40.5457304 19.4639878 40.5457304 3.79998779 38.7999878 3.79998779"></polygon>
                    <path d="M34.9734653,4.5089 C34.9734653,6.99882857 37.0083168,9.01732857 39.5184158,9.01732857 C42.0285149,9.01732857 44.0633663,6.99882857 44.0633663,4.5089 C44.0633663,2.01897143 42.0285149,0.000471428571 39.5184158,0.000471428571 C37.0083168,0.000471428571 34.9734653,2.01897143 34.9734653,4.5089" id="Fill-12" fill="#000000" mask="url(#mask-4)"></path>
                    <path d="M46.7583366,69.4289357 C42.7599208,73.3952214 36.2775446,73.3952214 32.2791287,69.4289357" id="Fill-13" fill="#000000" mask="url(#mask-4)"></path>
                    <path d="M53.4894257,97.9674143 C53.1432871,96.7817714 51.9694257,96.0125571 50.7329901,96.1508429 C46.7876436,96.5932 42.961901,98.3044857 39.9361584,101.283914 C37.0989307,98.4899143 33.3294257,96.6144143 29.1266535,96.1484857 C27.8997228,96.0125571 26.7314059,96.7754857 26.3884356,97.9509143 C25.4696238,101.096129 25.4165545,104.506129 26.382099,107.817129 C26.7282376,109.003557 27.902099,109.772771 29.1393267,109.6337 C33.0838812,109.191343 36.9104158,107.480843 39.9361584,104.501414 L39.9361584,104.501414 C42.7725941,107.294629 46.5428911,109.170129 50.7456634,109.636057 C51.971802,109.771986 53.1401188,109.009843 53.4838812,107.833629 C54.401901,104.688414 54.4549703,101.278414 53.4894257,97.9674143" id="Fill-14" fill="#000000" mask="url(#mask-4)"></path>
                </g>
            </g>
        </g>
    </g>
</svg>