<?xml version="1.0" encoding="utf-8"?>
<!-- Generator: Adobe Illustrator 20.0.0, SVG Export Plug-In . SVG Version: 6.00 Build 0)  -->
<svg version="1.1" id="Layer_1" xmlns="http://www.w3.org/2000/svg" xmlns:xlink="http://www.w3.org/1999/xlink" x="0px" y="0px"
	 viewBox="0 0 612 792" style="enable-background:new 0 0 612 792;" xml:space="preserve">
<g>
	<g>
		<path d="M302.2,214.1c54.9-1.3,100.9,17.5,138.1,56.7c21.5,22.7,33.9,50.4,40.1,80.8c8.7,42.9,6.2,85.1-11.9,125.2
			c-24.4,54.1-67.2,86.7-125.1,97.5c-67.8,12.6-126-6.3-171.8-58.8c-22.5-25.8-34.9-56.4-38.8-90.4c-4.1-35.8-1.4-71.1,12.5-104.5
			c22.5-54,63.5-87,119.8-101.6C277.4,215.8,290.2,214.7,302.2,214.1z M192.2,390.7c-0.1,24.3,1.4,43,4.9,61.6
			c5.8,30.6,15.9,59.4,35.7,84.2c32.5,40.9,93.1,48.5,134.2,16.4c20.9-16.3,33.7-38.4,42.1-63.1c17.9-53.1,19.1-107.1,7.5-161.5
			c-5.7-26.4-15.5-51.2-32.9-72.5c-32.5-39.8-90.5-47.6-131.9-17.5c-20.5,14.9-33.4,35.5-42.6,58.6
			C196.5,328.7,192.5,362.2,192.2,390.7z"/>
	</g>
</g>
</svg>
