<?xml version="1.0" encoding="utf-8"?>
<!-- Generator: Adobe Illustrator 20.0.0, SVG Export Plug-In . SVG Version: 6.00 Build 0)  -->
<svg version="1.1" id="Layer_1" xmlns="http://www.w3.org/2000/svg" xmlns:xlink="http://www.w3.org/1999/xlink" x="0px" y="0px"
	 viewBox="0 0 612 240" style="enable-background:new 0 0 612 240;" xml:space="preserve">
<g>
	<g>
		<path d="M62.9,193.6c-13.7,0-27.5,0-41.2,0c-1.7,0-3.5,0.2-5.2,0.3c-2,0.2-2.7-0.8-2.7-2.7c0-7.8,0-15.7,0-23.5c0-3,0-6,0-9
			c0-2.2,0.2-4.3,1.9-6.2c1.7-2,2.1-4.9,2.9-7.3c1-3.4,2.5-6.6,3.6-10.1c1-3.2,2-6.5,3.6-9.5c0.2-0.4,0.6-0.9,0.6-1.4
			c0.2-3.9,2.3-7.2,3.6-10.7c2-5.4,4-10.8,6-16.2c1.2-3.2,2.5-6.4,3.5-9.7c1.2-3.7,2.4-7.5,4-11.1c1.4-3.2,2.3-6.7,3.6-10
			c1.4-3.4,2.2-6.9,3.8-10.2c1.4-2.9,2.1-6.1,3.3-9.1c2.4-6.3,4.7-12.7,6.9-19c1.1-3.2,2.4-6.4,3.4-9.6c1-3,2.5-5.8,3-9
			C67.7,7.9,69.1,7,71.1,7c15.1,0,30.2,0,45.2,0c2.1,0,2.6,0.9,1.7,2.8c-3,6.2-4.9,12.8-7.4,19.1c-1.2,3-1.9,6.3-3.6,9.2
			c-1.4,2.3-1.9,5.1-2.7,7.7c-1,3.3-2.3,6.6-3.6,9.8c-1.3,3.3-1.8,6.9-3.9,9.9c-1.3,1.9-1.5,4.4-2.3,6.5c-1.1,3.3-2.7,6.4-3.6,9.8
			c-0.9,3.4-2.4,6.7-3.8,9.9c-1,2.3-1.8,4.7-2.5,7c-1.1,3.5-2.4,6.9-3.8,10.2c-1.3,3.3-2,6.8-3.8,9.9c-1.3,2.2-1.7,4.8-2.6,7.2
			c-1.2,3.4-2.8,6.7-3.7,10.3c-0.7,2.9-2.1,5.7-3.3,8.5c-0.5,1.2-1.1,2.4-1,3.8c0.1,1.8,0.9,2.6,2.8,2.6c11.6-0.2,23.1-0.3,34.7-0.4
			c4.3,0,5.1-0.8,5.1-5.3c0-16,0-32-0.1-48c0-2.4,0.6-3.2,3.1-3.2c12.9,0.1,25.8,0.1,38.7,0c1.9,0,2.7,0.5,2.7,2.5
			c-0.1,15.4,0,30.8-0.1,46.2c0,1.5-0.1,3-0.1,4.5c0.1,2.7,1.1,3.6,3.8,3.4c4.5-0.4,9-0.3,13.5-0.3c3.5,0,3.6,0.4,3.5,3.9
			c-0.3,6.2-0.2,12.5-0.2,18.7c0,5.8,0,11.7,0.1,17.5c0,2.2-0.9,2.9-3,2.9c-4.8-0.1-9.7,0.1-14.5-0.1c-2.2-0.1-3,0.8-2.9,2.9
			c0.1,9.7,0.1,19.5,0.1,29.2c0,2.8-0.4,3.1-3.2,3.1c-11.5,0-23,0-34.5,0c-1.6,0-3.1,0.3-4.7,0.4c-1.8,0.1-2.8-0.7-2.8-2.6
			c0.2-9.7-0.3-19.5,0.3-29.2c0.2-3.2-0.5-3.8-4.4-3.8C90.5,193.6,76.7,193.6,62.9,193.6C62.9,193.6,62.9,193.6,62.9,193.6z"/>
	</g>
</g>
<g>
	<g>
		<path d="M491.9,194.1c-13.7,0-27.5,0-41.2,0c-1.7,0-3.5,0.2-5.2,0.3c-2,0.2-2.7-0.8-2.7-2.7c0-7.8,0-15.7,0-23.5c0-3,0-6,0-9
			c0-2.2,0.2-4.3,1.9-6.2c1.7-2,2.1-4.9,2.9-7.3c1-3.4,2.5-6.6,3.6-10.1c1-3.2,2-6.5,3.6-9.5c0.2-0.4,0.6-0.9,0.6-1.4
			c0.2-3.9,2.3-7.2,3.6-10.7c2-5.4,4-10.8,6-16.2c1.2-3.2,2.5-6.4,3.5-9.7c1.2-3.7,2.4-7.5,4-11.1c1.4-3.2,2.3-6.7,3.6-10
			c1.4-3.4,2.2-6.9,3.8-10.2c1.4-2.9,2.1-6.1,3.3-9.1c2.4-6.3,4.7-12.7,6.9-19c1.1-3.2,2.4-6.4,3.4-9.6c1-3,2.5-5.8,3-9
			c0.3-1.8,1.7-2.7,3.7-2.7c15.1,0,30.2,0,45.2,0c2.1,0,2.6,0.9,1.7,2.8c-3,6.2-4.9,12.8-7.4,19.1c-1.2,3-1.9,6.3-3.6,9.2
			c-1.4,2.3-1.9,5.1-2.7,7.7c-1,3.3-2.3,6.6-3.6,9.8c-1.3,3.3-1.8,6.9-3.9,9.9c-1.3,1.9-1.5,4.4-2.3,6.5c-1.1,3.3-2.7,6.4-3.6,9.8
			c-0.9,3.4-2.4,6.7-3.8,9.9c-1,2.3-1.8,4.7-2.5,7c-1.1,3.5-2.4,6.9-3.8,10.2c-1.3,3.3-2,6.8-3.8,9.9c-1.3,2.2-1.7,4.8-2.6,7.2
			c-1.2,3.4-2.8,6.7-3.7,10.3c-0.7,2.9-2.1,5.7-3.3,8.5c-0.5,1.2-1.1,2.4-1,3.8c0.1,1.8,0.9,2.6,2.8,2.6c11.6-0.2,23.1-0.3,34.7-0.4
			c4.3,0,5.1-0.8,5.1-5.3c0-16,0-32-0.1-48c0-2.4,0.6-3.2,3.1-3.2c12.9,0.1,25.8,0.1,38.7,0c1.9,0,2.7,0.5,2.7,2.5
			c-0.1,15.4,0,30.8-0.1,46.2c0,1.5-0.1,3-0.1,4.5c0.1,2.7,1.1,3.6,3.8,3.4c4.5-0.4,9-0.3,13.5-0.3c3.5,0,3.6,0.4,3.5,3.9
			c-0.3,6.2-0.2,12.5-0.2,18.7c0,5.8,0,11.7,0.1,17.5c0,2.2-0.9,2.9-3,2.9c-4.8-0.1-9.7,0.1-14.5-0.1c-2.2-0.1-3,0.8-2.9,2.9
			c0.1,9.7,0.1,19.5,0.1,29.2c0,2.8-0.4,3.1-3.2,3.1c-11.5,0-23,0-34.5,0c-1.6,0-3.1,0.3-4.7,0.4c-1.8,0.1-2.8-0.7-2.8-2.6
			c0.2-9.7-0.3-19.5,0.3-29.2c0.2-3.2-0.5-3.8-4.4-3.8C519.5,194.1,505.7,194.1,491.9,194.1C491.9,194.1,491.9,194.1,491.9,194.1z"
			/>
	</g>
</g>
<g>
	<g>
		<path d="M303.5,1.5c35.8-0.8,65.9,11.4,90.2,37c14,14.8,22.2,32.9,26.2,52.7c5.7,28,4,55.6-7.8,81.7
			c-15.9,35.3-43.9,56.6-81.7,63.6c-44.3,8.2-82.3-4.1-112.2-38.4c-14.7-16.8-22.8-36.8-25.3-59c-2.7-23.4-0.9-46.4,8.1-68.2
			c14.7-35.2,41.5-56.8,78.2-66.3C287.3,2.6,295.7,1.9,303.5,1.5z M231.7,116.8c-0.1,15.9,0.9,28.1,3.2,40.2
			c3.8,20,10.4,38.8,23.3,55c21.2,26.7,60.8,31.6,87.7,10.7c13.7-10.7,22-25.1,27.5-41.2c11.7-34.6,12.5-69.9,4.9-105.5
			c-3.7-17.3-10.1-33.4-21.5-47.3c-21.2-26-59.1-31.1-86.1-11.4c-13.4,9.7-21.8,23.2-27.8,38.3C234.5,76.3,231.9,98.2,231.7,116.8z"
			/>
	</g>
</g>
</svg>
