<?xml version="1.0" encoding="UTF-8" standalone="no"?>
<svg width="30px" height="30px" viewBox="0 0 30 30" version="1.1" xmlns="http://www.w3.org/2000/svg" xmlns:xlink="http://www.w3.org/1999/xlink">
    <!-- Generator: sketchtool 39.1 (31720) - http://www.bohemiancoding.com/sketch -->
    <title>7D78F9E6-4B92-4C44-9F67-E05612BF0C41</title>
    <desc>Created with sketchtool.</desc>
    <defs></defs>
    <g id="01-Chat-Screen" stroke="none" stroke-width="1" fill="none" fill-rule="evenodd">
        <g id="Chat-Bot-UI-vC-1" transform="translate(-768.000000, -1018.000000)">
            <g id="chat-body" transform="translate(130.000000, 120.000000)">
                <g id="bot-message" transform="translate(220.000000, 878.000000)">
                    <g id="chat-bubble" transform="translate(60.000000, 10.000000)">
                        <g id="thumbs-up-active" transform="translate(358.000000, 10.000000)">
                            <circle id="bg" fill="#000000" cx="15" cy="15" r="15"></circle>
                            <path d="M25,21.1889336 L25,11.4342158 C25,10.9958016 24.6280088,10.6231494 24.190372,10.6231494 L21.2582057,10.6231494 C20.8205689,10.6231494 20.4485777,10.9958016 20.4485777,11.4342158 L20.4485777,21.1889336 C20.4485777,21.6273479 20.8205689,22 21.2582057,22 L24.190372,22 C24.6498906,22 25,21.6273479 25,21.1889336 L25,21.1889336 Z M5,12.0479958 L5,12.0479958 L5,16.5198215 C5,16.8924736 5.19693654,17.3528086 5.35010941,17.550095 L7.86652079,20.8820436 C8.26039387,21.4739029 8.78555799,22 9.52954048,22 L18.8293217,22 C19.2231947,22 19.5295405,21.6711893 19.5295405,21.2985372 L19.5295405,11.0615637 C19.5295405,10.5573873 19.3326039,10.0970523 18.9824945,9.76824157 L13.4682713,4.2003802 C13.2932166,4.02501449 13.0306346,3.95925234 12.6586433,4.02501449 C12.6586433,4.02501449 11.8271335,4.2003802 11.4551422,4.28806306 C11.0612691,4.37574591 10.8862144,4.70455662 10.8862144,5.18681233 C10.8862144,5.66906804 12.3960613,9.41751014 12.3960613,9.41751014 C12.4835886,9.81208299 12.1772429,10.1628144 11.7833698,10.1628144 L6.81619256,10.1628144 C5.80962801,10.1628144 5,10.9738808 5,11.9822337 L5,12.0479958 L5,12.0479958 Z" id="thumbs-up" fill="#FFFFFF"></path>
                        </g>
                    </g>
                </g>
            </g>
        </g>
    </g>
</svg>